<?xml version="1.0" encoding="UTF-8" standalone="no"?>
<svg
   width="15.6542"
   height="15.0024"
   viewBox="0 0 15.6542 15.0024"
   version="1.1"
   id="svg6317"
   sodipodi:docname="wolfram_folder.svg"
   xml:space="preserve"
   inkscape:version="1.2.2 (b0a8486541, 2022-12-01)"
   xmlns:inkscape="http://www.inkscape.org/namespaces/inkscape"
   xmlns:sodipodi="http://sodipodi.sourceforge.net/DTD/sodipodi-0.dtd"
   xmlns="http://www.w3.org/2000/svg"
   xmlns:svg="http://www.w3.org/2000/svg"><sodipodi:namedview
     id="namedview6319"
     pagecolor="#505050"
     bordercolor="#eeeeee"
     borderopacity="1"
     inkscape:showpageshadow="0"
     inkscape:pageopacity="0"
     inkscape:pagecheckerboard="0"
     inkscape:deskcolor="#505050"
     showgrid="false"
     inkscape:zoom="17.113928"
     inkscape:cx="5.1712266"
     inkscape:cy="1.0809909"
     inkscape:window-width="1263"
     inkscape:window-height="781"
     inkscape:window-x="0"
     inkscape:window-y="0"
     inkscape:window-maximized="0"
     inkscape:current-layer="svg6317" /><defs
     id="defs6298"><clipPath
       id="clip-1"><rect
         x="0"
         y="0"
         width="15.6542"
         height="15.0024"
         fill="none"
         stroke="none"
         stroke-width="1"
         stroke-linejoin="miter"
         stroke-miterlimit="10"
         id="rect6292" /></clipPath><clipPath
       id="clip-2"><rect
         x="0"
         y="-0.4461"
         width="16"
         height="16"
         id="rect6295"
         fill="none"
         stroke="none"
         stroke-width="1"
         stroke-linejoin="miter"
         stroke-miterlimit="10" /></clipPath><style
       id="style4786">
      .iconAdditional2 {
        fill: none;
        stroke: #fff;
        stroke-miterlimit: 10;
        stroke-width: 0.25px;
      }
      .iconMain2 {
        fill: #ffffff;
      }
      .iconAdditional2,
      .iconAlternate2 {
        fill: #bebebe;
      }
    </style><style
       class="darkreader darkreader--sync"
       media="screen"
       id="style4788" /></defs><g
     clip-path="url(#clip-1)"
     id="g6315"
     fill="none"
     fill-rule="nonzero"
     stroke="none"
     stroke-width="none"
     stroke-linecap="butt"
     stroke-linejoin="none"
     stroke-miterlimit="none"
     stroke-dasharray=""
     stroke-dashoffset="0"
     font-family="none"
     font-weight="none"
     font-size="none"
     text-anchor="none"
     style="mix-blend-mode: normal"><rect
       x="0"
       y="0"
       width="15.6542"
       height="15.0024"
       fill="none"
       stroke="none"
       stroke-width="1"
       stroke-linejoin="miter"
       stroke-miterlimit="10"
       id="rect6300" /><g
       id="g6313"><g
         clip-path="url(#clip-2)"
         id="Frame 1"><rect
           x="0"
           y="-0.4461"
           width="16"
           height="16"
           fill="none"
           stroke="none"
           stroke-width="1"
           stroke-linejoin="miter"
           stroke-miterlimit="10"
           id="rect6302" /><g
           fill="#a81d1d"
           stroke="none"
           stroke-width="1"
           stroke-linejoin="round"
           stroke-miterlimit="1.414"
           id="g6306"
           style="fill:#dd1100"><path
             d="M6.3333,1.2028h-4c-0.74,0 -1.3333,0.5933 -1.3333,1.3333v8c0,0.7313 0.602,1.3333 1.3333,1.3333h10.6667c0.7313,0 1.3333,-0.602 1.3333,-1.3333v-6.6667c0,-0.74 -0.6,-1.3333 -1.3333,-1.3333h-5.3333z"
             id="path6304"
             style="fill:#dd1100" /></g><g
           fill="#ffffff"
           stroke="#ffffff"
           stroke-width="0.3"
           stroke-linejoin="miter"
           stroke-miterlimit="10"
           id="g6310"><path
             d="M8.3653,12.8444c-3.1537,-1.8181 -3.1537,-6.3882 0,-8.2063c3.1537,-1.8181 7.1172,0.4669 7.1172,4.1032c0,3.6363 -3.9635,5.9213 -7.1172,4.1032zM12.253,12.7445l-1.3904,-2.2705c-0.5576,-0.0161 -1.1991,-0.191 -2.4374,-0.0112c0.0384,-0.3821 0.1953,-0.7426 0.4487,-1.031c-0.1886,-0.0801 -0.3833,-0.1449 -0.5823,-0.1938c0.0734,-0.2672 0.7761,-0.5823 0.8739,-0.6181c-0.0489,0.0602 -0.2427,0.2785 -0.3161,0.4487c0.2549,0.0357 0.5945,0.2418 0.5945,0.2418c0,0 -0.3641,0.3396 -0.5334,0.7639c1.0299,-0.1767 1.088,0.0057 4.4496,0.2916c0.4297,-0.543 0.3934,-0.3342 0.1336,-0.8006c-0.8118,-0.412 -2.0244,-1.4064 -2.825,-2.2069l-0.619,-2.0734c-0.6783,0.5089 -0.7874,1.4788 -1.1637,2.1345c-0.7234,0.5428 -1.175,2.396 -1.5381,3.9313c0.4036,0.6086 2.2897,2.3391 4.9049,1.3937zM10.6688,8.5465c0.412,-0.0602 0.7149,0.158 0.9943,0.3641l-0.461,0.1336c-0.2305,-0.1336 -0.4365,-0.206 -0.6303,-0.1825zM15.0088,8.7413c0,-3.273 -3.5676,-5.3298 -6.4062,-3.6932c-2.0542,1.1843 -2.6203,3.6616 -1.7015,5.5627c0.5636,-1.6049 1.1575,-2.8178 1.7912,-3.5186c0.3396,-1.0066 0.8118,-1.8683 1.4308,-2.3772l0.5089,1.5644l1.0066,-0.9821c0,-0.0122 0.158,1.4553 0.0847,2.5588c0.6425,0.6547 2.5221,1.8429 2.5221,1.8429c0,0 -0.6547,0.9219 -0.7761,0.9699c-0.2266,0.0917 -1.1729,-0.0631 -1.9275,-0.1336l1.4616,1.8197c1.1783,-0.7347 2.0055,-2.0346 2.0055,-3.6136z"
             id="path6308"
             style="stroke:#fdfdfd;stroke-opacity:1;stroke-width:0.31;stroke-dasharray:none" /></g></g></g></g><g
     id="g6463"
     transform="translate(17.243347,4.267111)" /></svg>
