<svg
  xmlns="http://www.w3.org/2000/svg"
  width="16"
  height="16"
  viewBox="0 0 16 16"
>
  <path
    fill="#000"
    d="m10.9 9.595-2.873 1.617-2.871-1.617V6.36l2.871-1.618L10.9 6.36zm4.015-1.244-3.177 5.358a.63.63 0 0 1-.559.292H4.823a.63.63 0 0 1-.559-.295l-3.178-5.35a.63.63 0 0 1 0-.636l3.177-5.381A.67.67 0 0 1 4.823 2h6.354a.67.67 0 0 1 .559.339l3.177 5.393a.6.6 0 0 1 0 .619Zm-2.631 2.1V5.644L8 3.234l-4.28 2.41v4.806L8 12.86Z"
    data-iconColor="ESLint Ignore"
    data-themed="true"
  />
</svg>
