<?xml version="1.0" encoding="UTF-8" standalone="no"?>
<!-- Uploaded to: SVG Repo, www.svgrepo.com, Generator: SVG Repo Mixer Tools -->

<svg
   width="800px"
   height="800px"
   viewBox="0 0 32 32"
   version="1.1"
   id="svg10687"
   sodipodi:docname="mathematica.svg"
   inkscape:version="1.2.2 (b0a8486541, 2022-12-01)"
   xmlns:inkscape="http://www.inkscape.org/namespaces/inkscape"
   xmlns:sodipodi="http://sodipodi.sourceforge.net/DTD/sodipodi-0.dtd"
   xmlns="http://www.w3.org/2000/svg"
   xmlns:svg="http://www.w3.org/2000/svg">
  <defs
     id="defs10691" />
  <sodipodi:namedview
     id="namedview10689"
     pagecolor="#505050"
     bordercolor="#eeeeee"
     borderopacity="1"
     inkscape:showpageshadow="0"
     inkscape:pageopacity="0"
     inkscape:pagecheckerboard="0"
     inkscape:deskcolor="#505050"
     showgrid="false"
     inkscape:zoom="0.22519755"
     inkscape:cx="-799.29821"
     inkscape:cy="963.5984"
     inkscape:window-width="1920"
     inkscape:window-height="1134"
     inkscape:window-x="0"
     inkscape:window-y="0"
     inkscape:window-maximized="1"
     inkscape:current-layer="svg10687" />
  <title
     id="title10681">file_type_wolfram</title>
  <path
     d="m 25.94,16 c 4.690578,-5.420203 4.935192,-4.186393 -1.888,-5.844 0.953985,-6.7038044 2.227552,-6.3269674 -4.981,-3.613 -3.588245,-6.00878277 -2.347435,-5.87644815 -6.142,0 C 6.0519327,3.6272758 7.4344353,3.250806 7.948,10.156 1.3244053,11.77148 1.8976871,10.743295 6.059,16 c -4.4458721,5.156034 -4.54722,3.810328 1.889,5.844 -1.0151609,6.886934 -2.1155286,6.225141 4.981,3.613 3.588214,5.88633 2.540311,5.531254 6.141,0 6.836164,3.02195 5.653741,3.33311 4.981,-3.613 6.949843,-1.981768 6.18373,-0.6379 1.889,-5.844 z"
     style="fill:#dd1100"
     id="path10683"
     sodipodi:nodetypes="ccccccccccc" />
  <path
     d="m 21.691,13.978 c -0.357,-1.175 0.654,-6.706 0.654,-6.706 0,0 -3.795,2.572 -6.457,2.572 -2.662,0 -6.23,-2.572 -6.23,-2.572 0,0 1.175,4.015 0.461,6.587 -0.714,2.572 -4.387,5.472 -4.387,5.472 0,0 4.788,0.283 6.6,1.5 1.812,1.217 3.658,5.948 3.658,5.948 0,0 2.454,-5.2 3.48,-5.948 1.026,-0.748 6.8,-1.5 6.8,-1.5 0,0 -4.223,-4.178 -4.58,-5.353 z m -2.84,5.963 c -1.308501,1.10893 -2.290297,2.553276 -2.84,4.178 0,0 -1.413,-3.152 -2.974,-4.223 C 11.476,18.825 8.3,18.543 8.3,18.543 c 0,0 2.454,-2.171 3.048,-4.1 0.313671,-1.639468 0.279603,-3.326532 -0.1,-4.952 1.417654,0.878238 3.01212,1.43181 4.669,1.621 2.037,0 4.848,-1.621 4.848,-1.621 0,0 -0.818,3.033 -0.164,4.922 0.654,1.889 3.108,4.134 3.108,4.134 -1.710189,0.06567 -3.378773,0.54613 -4.862,1.4 z"
     style="fill:#ffffff;stroke:#ffffff;stroke-opacity:1"
     id="path10685"
     sodipodi:nodetypes="ccscscscscccccscccccsccc" />
</svg>
