<?xml version="1.0" encoding="UTF-8" standalone="no"?>
<!--
  - The MIT License (MIT)
  -
  - Copyright (c) 2015-2024 Elior "Mallowigi" Boukhobza
  -
  - Permission is hereby granted, free of charge, to any person obtaining a copy
  - of this software and associated documentation files (the "Software"), to deal
  - in the Software without restriction, including without limitation the rights
  - to use, copy, modify, merge, publish, distribute, sublicense, and/or sell
  - copies of the Software, and to permit persons to whom the Software is
  - furnished to do so, subject to the following conditions:
  -
  - The above copyright notice and this permission notice shall be included in all
  - copies or substantial portions of the Software.
  -
  - THE SOFTWARE IS PROVIDED "AS IS", WITHOUT WARRANTY OF ANY KIND, EXPRESS OR
  - IMPLIED, INCLUDING BUT NOT LIMITED TO THE WARRANTIES OF MERCHANTABILITY,
  - FITNESS FOR A PARTICULAR PURPOSE AND NONINFRINGEMENT. IN NO EVENT SHALL THE
  - AUTHORS OR COPYRIGHT HOLDERS BE LIABLE FOR ANY CLAIM, DAMAGES OR OTHER
  - LIABILITY, WHETHER IN AN ACTION OF CONTRACT, TORT OR OTHERWISE, ARISING FROM,
  - OUT OF OR IN CONNECTION WITH THE SOFTWARE OR THE USE OR OTHER DEALINGS IN THE
  - SOFTWARE.
  -
  -->

<svg
   width="16px"
   height="16px"
   viewBox="0 0 16 16"
   version="1.1"
   id="svg4"
   sodipodi:docname="wolfram_net.svg"
   xml:space="preserve"
   inkscape:version="1.2.2 (b0a8486541, 2022-12-01)"
   xmlns:inkscape="http://www.inkscape.org/namespaces/inkscape"
   xmlns:sodipodi="http://sodipodi.sourceforge.net/DTD/sodipodi-0.dtd"
   xmlns="http://www.w3.org/2000/svg"
   xmlns:svg="http://www.w3.org/2000/svg"><defs
     id="defs8"><style
       id="style4786">
      .iconAdditional2 {
        fill: none;
        stroke: #fff;
        stroke-miterlimit: 10;
        stroke-width: 0.25px;
      }
      .iconMain2 {
        fill: #ffffff;
      }
      .iconAdditional2,
      .iconAlternate2 {
        fill: #bebebe;
      }
    </style><style
       class="darkreader darkreader--sync"
       media="screen"
       id="style4788" /></defs><sodipodi:namedview
     id="namedview6"
     pagecolor="#505050"
     bordercolor="#eeeeee"
     borderopacity="1"
     inkscape:showpageshadow="0"
     inkscape:pageopacity="0"
     inkscape:pagecheckerboard="0"
     inkscape:deskcolor="#505050"
     showgrid="false"
     inkscape:zoom="20.85965"
     inkscape:cx="6.112279"
     inkscape:cy="13.135407"
     inkscape:window-width="1353"
     inkscape:window-height="818"
     inkscape:window-x="0"
     inkscape:window-y="0"
     inkscape:window-maximized="0"
     inkscape:current-layer="svg4" /><g
     id="g3412"
     transform="matrix(0.56521929,0,0,0.56521929,-1.0510536,-0.99060526)"><path
       d="m 25.94,16 c 4.690578,-5.420203 4.935192,-4.186393 -1.888,-5.844 0.953985,-6.7038044 2.227552,-6.3269674 -4.981,-3.613 -3.588245,-6.00878277 -2.347435,-5.87644815 -6.142,0 C 6.0519327,3.6272758 7.4344353,3.250806 7.948,10.156 1.3244053,11.77148 1.8976871,10.743295 6.059,16 c -4.4458721,5.156034 -4.54722,3.810328 1.889,5.844 -1.0151609,6.886934 -2.1155286,6.225141 4.981,3.613 3.588214,5.88633 2.540311,5.531254 6.141,0 6.836164,3.02195 5.653741,3.33311 4.981,-3.613 6.949843,-1.981768 6.18373,-0.6379 1.889,-5.844 z"
       style="fill:#dd1100"
       id="path10683"
       sodipodi:nodetypes="ccccccccccc" /></g><g
     id="g4805"
     transform="matrix(0.40212744,0,0,0.40212744,0.63028374,0.67149549)"
     style="stroke-width:0.87037085"><g
       id="white2"
       class="iconAdditional2"><path
         style="color:#000000;fill:#ffffff;stroke-width:0.24867738;stroke-miterlimit:10;stroke:#ffffff;stroke-opacity:1;stroke-dasharray:none"
         d="m 19.58253,32.2817 13.25,-9.4918 m 0,-9.4918 -13.25,-9.4918 m 0,18.9836 13.25,-9.4918 m -13.25,0 h 13.25 m -13.25,9.4918 h 13.25 m -13.25,9.4918 13.25,-18.9836 m -13.25,-9.4918 13.25,18.9836 m -13.25,-9.4918 13.25,9.4918 m -29,-14.2377 15.75,-4.7459 m -15.75,14.2377 15.75,-4.7459 m -15.75,14.2377 15.75,-4.7459 m 0,-9.4918 -15.75,-4.7459 m 15.75,14.2377 -15.75,-14.2377 m 15.75,23.7295 -15.75,-23.7295 m 0,9.4918 15.75,-14.2377 m -15.75,23.7295 15.75,-23.7295 m -15.75,14.2377 15.75,4.7459 m 0,-9.4918 -15.75,14.2377 m 0,-9.4918 15.75,14.2377 m -15.75,-4.7459 15.75,4.7459"
         id="path344" /><path
         style="color:#000000;fill:#ffffff;stroke-miterlimit:10;stroke-width:0.24867738;stroke-dasharray:none;stroke:#ffffff;stroke-opacity:1"
         d="m 19.457031,3.3886719 -15.7499997,4.7460937 0.125,0.4160157 v 0.00195 l -0.00195,0.00195 -0.359375,0.2382813 3.7304688,5.6191402 -3.6601563,3.308594 0.2910157,0.322266 -0.2910157,0.324218 3.6601563,3.308594 -3.7304688,5.619141 0.3613282,0.240234 -0.125,0.417969 15.7499997,4.746094 0.125,-0.416016 0.253906,0.351563 13.25,-9.490235 -0.253906,-0.353515 v -0.002 l 0.357422,-0.248046 -3.138672,-4.498047 3.138672,-4.496094 -0.357422,-0.25 0.253906,-0.353516 -13.25,-9.490234 -0.253906,0.3515625 z M 19.591797,4.578125 25.375,12.863281 H 19.650391 L 15.019531,11.46875 Z M 17.857422,4.78125 11.599609,10.4375 5.34375,8.5507813 Z m 3.535156,0.8574219 10.083984,7.2246091 h -5.041015 z m -4.087891,0.8125 -3.154296,4.7539061 -1.578125,-0.474609 z M 5.5625,9.5273438 10.84375,11.119141 9.0839844,12.710938 Z m 0.5488281,1.6699222 2.3222657,2.101562 -0.5800782,0.523438 z m 5.7070309,0.214843 1.828125,0.552735 L 11.625,15.009766 9.7324219,13.296875 Z m 2.699219,0.814454 3.554688,1.070312 -5.333985,1.609375 z m 6.419922,1.505859 h 5.042969 l 1.832031,2.625 -1.605469,1.15039 z m 6.103516,0 h 4.435546 l -2.957031,2.119141 z m -7.427735,0.125 5.845703,4.185547 -5.845703,4.1875 -4.630859,-4.1875 z M 9.0820313,13.884766 10.84375,15.476563 9.265625,15.951172 8.3398438,14.556641 Z m 8.7714847,0.388672 -3.521485,3.183593 -1.759765,-1.591797 z m 13.171875,0.855468 -1.50586,2.15625 -0.5,-0.71875 z M 7.6875,15.146484 8.3964844,16.212891 5.5625,17.068359 Z m 4.103516,1.1875 1.892578,1.708985 -1.892578,1.71289 -1.136719,-1.710937 z m -1.113282,0.101563 -0.544921,0.822265 -0.3632817,-0.546875 z M 8.9003906,16.972656 9.6113281,18.042969 8.9003906,19.115234 5.34375,18.042969 Z m 19.4121094,0.09961 0.677734,0.970703 -0.677734,0.972656 -1.357422,-0.972656 z m -2.105469,1.507812 1.605469,1.150391 -1.832031,2.625 H 20.9375 Z m -11.875,0.05078 3.521485,3.183594 -5.28125,-1.591797 z m 15.1875,0.171875 1.50586,2.15625 -2.00586,-1.4375 z m -19.386718,0.02734 0.544921,0.822266 -0.9082027,-0.273438 z M 5.5625,19.019531 8.3964844,19.875 7.6875,20.941406 Z M 9.2675781,20.136719 10.84375,20.611328 9.0820313,22.203125 8.3398438,21.53125 Z m 19.2519529,0.09961 2.957031,2.119141 H 27.041016 Z M 11.625,21.078125 l 2.021484,3.044922 -1.828125,0.552734 -2.0859371,-1.886719 z m 1.113281,0.103516 5.333985,1.607421 -3.556641,1.072266 z m -4.8847654,1.083984 0.5800782,0.523437 -2.3203126,2.097657 z M 19.650391,23.224609 H 25.375 l -5.783203,8.285157 -4.572266,-6.888672 z m 6.785156,0 h 5.041015 l -10.083984,7.22461 z M 9.0820313,23.376953 10.84375,24.96875 5.5625,26.560547 Z m 5.0683597,1.505859 3.154296,4.753907 -4.732421,-4.279297 z m -2.552735,0.767579 6.25586,5.65625 L 5.34375,27.535156 Z"
         id="path346" /></g><path
       id="white1"
       class="iconMain2"
       d="M 21.96587,3.38333 A 2.38333,2.38333 0 1 1 19.58253,1 2.38333,2.38333 0 0 1 21.96587,3.38333 Z m -2.38333,7.55724 a 2.38333,2.38333 0 1 0 2.38333,2.38333 2.38333,2.38333 0 0 0 -2.38334,-2.38332 z m 0,9.44018 a 2.38333,2.38333 0 1 0 2.38333,2.38333 2.38333,2.38333 0 0 0 -2.38334,-2.38332 z m 0,9.44018 a 2.38333,2.38333 0 1 0 2.38333,2.38333 2.38333,2.38333 0 0 0 -2.38334,-2.38333 z" /><path
       id="gray2"
       class="iconAlternate2"
       d="m 35.66507,12.82351 a 2.38333,2.38333 0 1 1 -2.38333,-2.38333 2.38333,2.38333 0 0 1 2.38333,2.38333 z m -2.38333,8.05764 a 2.38333,2.38333 0 1 0 2.38333,2.38333 2.38333,2.38333 0 0 0 -2.38334,-2.38332 z"
       style="fill:#ffffff" /><path
       id="gray1"
       class="iconAlternate2"
       d="M 5.76667,8.10342 A 2.38333,2.38333 0 1 1 3.38333,5.72009 2.38333,2.38333 0 0 1 5.76667,8.10342 Z M 3.38333,15.66067 A 2.38333,2.38333 0 1 0 5.76667,18.044 2.38333,2.38333 0 0 0 3.38333,15.66067 Z m 0,9.94058 a 2.38333,2.38333 0 1 0 2.38333,2.38333 2.38333,2.38333 0 0 0 -2.38333,-2.38333 z"
       style="fill:#ffffff" /></g></svg>
